<svg width="128" height="128" viewBox="0 0 128 128" xmlns="http://www.w3.org/2000/svg">
  <!-- Background circle -->
  <circle cx="64" cy="64" r="60" fill="#667eea" stroke="#22c55e" stroke-width="4"/>
  
  <!-- Gradient background -->
  <defs>
    <linearGradient id="bg" x1="0%" y1="0%" x2="100%" y2="100%">
      <stop offset="0%" style="stop-color:#667eea"/>
      <stop offset="100%" style="stop-color:#764ba2"/>
    </linearGradient>
  </defs>
  
  <circle cx="64" cy="64" r="60" fill="url(#bg)"/>
  
  <!-- Main rocket icon -->
  <path d="M64 20 L75 35 L90 30 L85 45 L100 50 L85 55 L90 70 L75 65 L64 80 L53 65 L38 70 L43 55 L28 50 L43 45 L38 30 L53 35 Z" 
        fill="#22c55e" stroke="white" stroke-width="2"/>
  
  <!-- Inner rocket detail -->
  <circle cx="64" cy="45" r="8" fill="white"/>
  <path d="M64 55 L70 70 L64 65 L58 70 Z" fill="#16a34a"/>
  
  <!-- Mercuryo "M" symbol -->
  <text x="64" y="45" text-anchor="middle" dominant-baseline="middle" 
        font-family="Arial, sans-serif" font-size="12" font-weight="bold" fill="#667eea">M</text>
  
  <!-- Forcing effect rays -->
  <path d="M64 10 L66 18 L64 20 L62 18 Z" fill="#22c55e" opacity="0.8"/>
  <path d="M85 25 L90 28 L88 32 L83 29 Z" fill="#22c55e" opacity="0.8"/>
  <path d="M103 46 L108 48 L106 52 L101 50 Z" fill="#22c55e" opacity="0.8"/>
  <path d="M45 25 L38 28 L40 32 L45 29 Z" fill="#22c55e" opacity="0.8"/>
  <path d="M25 46 L20 48 L22 52 L27 50 Z" fill="#22c55e" opacity="0.8"/>
  
  <!-- Bottom text -->
  <text x="64" y="105" text-anchor="middle" font-family="Arial, sans-serif" 
        font-size="10" font-weight="bold" fill="white">AURALO</text>
</svg>